<mxfile host="app.diagrams.net" modified="2023-08-06T02:20:00.203Z" agent="Mozilla/5.0 (Windows NT 10.0; Win64; x64) AppleWebKit/537.36 (KHTML, like Gecko) Chrome/115.0.0.0 Safari/537.36" etag="rRxCTUQYUxVNBVhgMbgz" version="21.6.5" type="github" pages="2">
  <diagram name="AAA認証" id="PP09PwQhN0twtaRUhVgX">
    <mxGraphModel dx="1100" dy="978" grid="0" gridSize="10" guides="1" tooltips="1" connect="1" arrows="1" fold="1" page="1" pageScale="1" pageWidth="827" pageHeight="1169" math="0" shadow="0">
      <root>
        <mxCell id="0" />
        <mxCell id="1" parent="0" />
        <mxCell id="_2ap77zCKXi2U0UIOUTR-1" value="" style="image;html=1;image=img/lib/clip_art/networking/Router_Icon_128x128.png" parent="1" vertex="1">
          <mxGeometry x="138" y="31" width="80" height="80" as="geometry" />
        </mxCell>
        <mxCell id="_2ap77zCKXi2U0UIOUTR-2" value="AAA有効化&lt;br&gt;ユーザ：Ciscoとパスワード：Cisco123作成" style="whiteSpace=wrap;html=1;align=left;verticalAlign=top;fontColor=#0000FF;" parent="1" vertex="1">
          <mxGeometry x="39" y="135" width="310" height="48" as="geometry" />
        </mxCell>
        <mxCell id="Uu0wt79npnzHh3u4MpTr-1" value="&lt;div style=&quot;border-color: var(--border-color);&quot;&gt;Router(config)#username Cisco pas&lt;/div&gt;&lt;div style=&quot;border-color: var(--border-color);&quot;&gt;Router(config)#username Cisco password Cisco123&lt;/div&gt;&lt;div style=&quot;border-color: var(--border-color);&quot;&gt;Router(config)#username Cisco se&lt;/div&gt;&lt;div style=&quot;border-color: var(--border-color);&quot;&gt;Router(config)#username Cisco pas&lt;/div&gt;&lt;div style=&quot;border-color: var(--border-color);&quot;&gt;Router(config)#no username Cisco password Cisco123&lt;/div&gt;&lt;div style=&quot;border-color: var(--border-color);&quot;&gt;Router(config)#username Cisco pas&lt;/div&gt;&lt;div style=&quot;border-color: var(--border-color);&quot;&gt;Router(config)#username Cisco password password&lt;/div&gt;&lt;div style=&quot;border-color: var(--border-color);&quot;&gt;Router(config)#user&lt;/div&gt;&lt;div style=&quot;border-color: var(--border-color);&quot;&gt;Router(config)#usern&lt;/div&gt;&lt;div style=&quot;border-color: var(--border-color);&quot;&gt;Router(config)#username Cisco s&lt;/div&gt;&lt;div style=&quot;border-color: var(--border-color);&quot;&gt;Router(config)#username Cisco secret secret&lt;/div&gt;&lt;div style=&quot;border-color: var(--border-color);&quot;&gt;ERROR: Can not have both a user password and a user secret.&lt;/div&gt;&lt;div style=&quot;border-color: var(--border-color);&quot;&gt;Please choose one or the other.&lt;/div&gt;" style="whiteSpace=wrap;html=1;align=left;verticalAlign=top;" parent="1" vertex="1">
          <mxGeometry x="39" y="193" width="410" height="208" as="geometry" />
        </mxCell>
        <mxCell id="Uu0wt79npnzHh3u4MpTr-2" value="&lt;div style=&quot;border-color: var(--border-color);&quot;&gt;&lt;div style=&quot;border-color: var(--border-color);&quot;&gt;&lt;span style=&quot;background-color: initial;&quot;&gt;Router#sh run | s username&lt;/span&gt;&lt;br&gt;&lt;/div&gt;&lt;div style=&quot;border-color: var(--border-color);&quot;&gt;username Cisco password 0 password&lt;/div&gt;&lt;/div&gt;" style="whiteSpace=wrap;html=1;align=left;verticalAlign=top;" parent="1" vertex="1">
          <mxGeometry x="43" y="492" width="291" height="55" as="geometry" />
        </mxCell>
        <mxCell id="Uu0wt79npnzHh3u4MpTr-4" value="&lt;div style=&quot;border-color: var(--border-color);&quot;&gt;&lt;div style=&quot;border-color: var(--border-color);&quot;&gt;ユーザ作成の時にパスワードとシークレットは一つのみと怒られる&lt;br&gt;&lt;/div&gt;&lt;/div&gt;" style="whiteSpace=wrap;html=1;align=left;verticalAlign=top;fontColor=#FF0000;strokeColor=none;" parent="1" vertex="1">
          <mxGeometry x="43" y="425" width="426" height="55" as="geometry" />
        </mxCell>
        <mxCell id="Uu0wt79npnzHh3u4MpTr-5" value="&lt;div style=&quot;border-color: var(--border-color);&quot;&gt;&lt;div style=&quot;border-color: var(--border-color);&quot;&gt;権限を指定しなかったら０になる&lt;br&gt;&lt;/div&gt;&lt;/div&gt;" style="whiteSpace=wrap;html=1;align=left;verticalAlign=top;fontColor=#FF0000;strokeColor=none;" parent="1" vertex="1">
          <mxGeometry x="43" y="574" width="426" height="55" as="geometry" />
        </mxCell>
        <mxCell id="Uu0wt79npnzHh3u4MpTr-6" value="&lt;div style=&quot;border-color: var(--border-color);&quot;&gt;&lt;div style=&quot;border-color: var(--border-color);&quot;&gt;&lt;table style=&quot;font-family: Meiryo;&quot; height=&quot;205&quot; width=&quot;810&quot; border=&quot;1&quot;&gt;&lt;tbody&gt;&lt;tr&gt;&lt;td width=&quot;196&quot; height=&quot;46&quot; align=&quot;center&quot;&gt;&lt;font face=&quot;メイリオ&quot; size=&quot;-1&quot;&gt;&lt;font face=&quot;MS Reference Sans Serif&quot;&gt;privilege level 0&lt;/font&gt;&lt;/font&gt;&lt;/td&gt;&lt;td width=&quot;598&quot; height=&quot;46&quot; align=&quot;left&quot;&gt;&lt;p style=&quot;line-height: 28.8px;&quot;&gt;&lt;font face=&quot;メイリオ&quot; size=&quot;-1&quot;&gt;　disable、enable、exit、help、logout などの基本コマンドが含まれた特権レベル&lt;/font&gt;&lt;/p&gt;&lt;/td&gt;&lt;/tr&gt;&lt;tr&gt;&lt;td width=&quot;196&quot; height=&quot;46&quot; align=&quot;center&quot;&gt;&lt;font face=&quot;メイリオ&quot; size=&quot;-1&quot;&gt;&lt;font face=&quot;MS Reference Sans Serif&quot;&gt;privilege level 1&lt;/font&gt;&lt;/font&gt;&lt;/td&gt;&lt;td width=&quot;598&quot; height=&quot;46&quot; align=&quot;left&quot;&gt;&lt;p style=&quot;line-height: 28.8px;&quot;&gt;&lt;font face=&quot;メイリオ&quot; size=&quot;-1&quot;&gt;　ユーザモードのデフォルトレベル。ユーザEXEC。プロンプトは「&amp;nbsp;&lt;/font&gt;&lt;font color=&quot;#ff0000&quot; face=&quot;メイリオ&quot; size=&quot;-1&quot;&gt;router&amp;gt;&lt;/font&gt;&lt;font face=&quot;メイリオ&quot; size=&quot;-1&quot;&gt;&amp;nbsp;」&lt;/font&gt;&lt;/p&gt;&lt;/td&gt;&lt;/tr&gt;&lt;tr&gt;&lt;td width=&quot;196&quot; height=&quot;46&quot; align=&quot;center&quot;&gt;&lt;font face=&quot;メイリオ&quot; size=&quot;-1&quot;&gt;&lt;font face=&quot;MS Reference Sans Serif&quot;&gt;privilege level 15&lt;/font&gt;&lt;/font&gt;&lt;/td&gt;&lt;td width=&quot;598&quot; height=&quot;46&quot; align=&quot;left&quot;&gt;&lt;p style=&quot;line-height: 28.8px;&quot;&gt;&lt;font face=&quot;メイリオ&quot; size=&quot;-1&quot;&gt;　イネーブルモードの特権レベル。イネーブルEXEC。プロンプトは「&lt;/font&gt;&lt;font color=&quot;#ff0000&quot; face=&quot;メイリオ&quot; size=&quot;-1&quot;&gt;&amp;nbsp;router#&lt;/font&gt;&lt;font face=&quot;メイリオ&quot; size=&quot;-1&quot;&gt;&amp;nbsp;」&lt;/font&gt;&lt;/p&gt;&lt;/td&gt;&lt;/tr&gt;&lt;/tbody&gt;&lt;/table&gt;&lt;/div&gt;&lt;/div&gt;" style="whiteSpace=wrap;html=1;align=left;verticalAlign=top;fontColor=#FF0000;strokeColor=none;" parent="1" vertex="1">
          <mxGeometry x="39" y="652" width="846" height="230" as="geometry" />
        </mxCell>
        <mxCell id="Uu0wt79npnzHh3u4MpTr-7" value="&lt;div style=&quot;border-color: var(--border-color);&quot;&gt;&lt;div style=&quot;border-color: var(--border-color);&quot;&gt;Router(config)#username Cisco privilege 1 secret secret&lt;br&gt;&lt;div style=&quot;border-color: var(--border-color);&quot;&gt;Router(config)#do sh run | s user&lt;/div&gt;&lt;div style=&quot;border-color: var(--border-color);&quot;&gt;username Cisco secret 5 $1$vHuc$auO..VjIoK3BSWT7KIfz50&lt;/div&gt;&lt;/div&gt;&lt;/div&gt;" style="whiteSpace=wrap;html=1;align=left;verticalAlign=top;" parent="1" vertex="1">
          <mxGeometry x="39" y="898" width="475" height="55" as="geometry" />
        </mxCell>
        <mxCell id="Uu0wt79npnzHh3u4MpTr-9" value="&lt;div style=&quot;border-color: var(--border-color);&quot;&gt;&lt;div style=&quot;border-color: var(--border-color);&quot;&gt;試しに権限を１にシークレットを作成&lt;/div&gt;&lt;/div&gt;" style="whiteSpace=wrap;html=1;align=left;verticalAlign=top;fontColor=#FF0000;strokeColor=none;" parent="1" vertex="1">
          <mxGeometry x="39" y="974" width="426" height="55" as="geometry" />
        </mxCell>
        <mxCell id="Uu0wt79npnzHh3u4MpTr-10" value="" style="image;html=1;image=img/lib/clip_art/networking/Router_Icon_128x128.png" parent="1" vertex="1">
          <mxGeometry x="1201" y="44" width="80" height="80" as="geometry" />
        </mxCell>
        <mxCell id="mjAupGDoTwcLQawQlSMb-1" value="&lt;div style=&quot;border-color: var(--border-color);&quot;&gt;&lt;div style=&quot;border-color: var(--border-color);&quot;&gt;Router(config)#line con 0&lt;/div&gt;&lt;div style=&quot;border-color: var(--border-color);&quot;&gt;Router(config-line)#&lt;/div&gt;&lt;div style=&quot;border-color: var(--border-color);&quot;&gt;Router(config-line)#&lt;/div&gt;&lt;div style=&quot;border-color: var(--border-color);&quot;&gt;Router(config-line)#logi&lt;/div&gt;&lt;div style=&quot;border-color: var(--border-color);&quot;&gt;Router(config-line)#login au&lt;/div&gt;&lt;div style=&quot;border-color: var(--border-color);&quot;&gt;Router(config-line)#login authentication LO&lt;/div&gt;&lt;div style=&quot;border-color: var(--border-color);&quot;&gt;Router(config-line)#login authentication LO&lt;/div&gt;&lt;div style=&quot;border-color: var(--border-color);&quot;&gt;Router(config-line)#login authentication LO&lt;/div&gt;&lt;div style=&quot;border-color: var(--border-color);&quot;&gt;Router(config-line)#login authentication LOCAL_LIST&lt;/div&gt;&lt;div style=&quot;border-color: var(--border-color);&quot;&gt;Router(config-line)#do sh run | s line con 0&lt;/div&gt;&lt;div style=&quot;border-color: var(--border-color);&quot;&gt;line con 0&lt;/div&gt;&lt;div style=&quot;border-color: var(--border-color);&quot;&gt;&amp;nbsp;exec-timeout 0 0&lt;/div&gt;&lt;div style=&quot;border-color: var(--border-color);&quot;&gt;&amp;nbsp;logging synchronous&lt;/div&gt;&lt;div style=&quot;border-color: var(--border-color);&quot;&gt;&amp;nbsp;login authentication LOCAL_LIST&lt;/div&gt;&lt;div style=&quot;border-color: var(--border-color);&quot;&gt;&amp;nbsp;no modem enable&lt;/div&gt;&lt;/div&gt;" style="whiteSpace=wrap;html=1;align=left;verticalAlign=top;" vertex="1" parent="1">
          <mxGeometry x="1008" y="171" width="474" height="258" as="geometry" />
        </mxCell>
        <mxCell id="mjAupGDoTwcLQawQlSMb-2" value="コンソール接続でログインする際にローカルデータベース使用してログインする" style="whiteSpace=wrap;html=1;align=left;verticalAlign=top;fontColor=#FF0000;strokeColor=none;" vertex="1" parent="1">
          <mxGeometry x="1013" y="476" width="484" height="55" as="geometry" />
        </mxCell>
      </root>
    </mxGraphModel>
  </diagram>
  <diagram id="uj1H-IIrwa0S7pnmGkx6" name="CISCO暗号化と複合化">
    <mxGraphModel dx="1100" dy="978" grid="0" gridSize="10" guides="1" tooltips="1" connect="1" arrows="1" fold="1" page="1" pageScale="1" pageWidth="827" pageHeight="1169" math="0" shadow="0">
      <root>
        <mxCell id="0" />
        <mxCell id="1" parent="0" />
        <mxCell id="6l6hhNEvBz0SWGdBXN2a-1" value="Router(config)#do sh run | s line vty&#xa;line vty 0 4&#xa;Router(config)#line vty 0 4&#xa;Router(config-line)#pas&#xa;Router(config-line)#password test123&#xa;Router(config-line)#do sh run | s line vty&#xa;line vty 0 4&#xa; password test123&#xa;&#xa;&#xa;Router(config)#service password-encryption&#xa;Router(config)#&#xa;&#xa;Router(config)#do sh run | s line vty&#xa;line vty 0 4&#xa; password 7 071B245F5A584B56&#xa;&#xa;Router(config)#key chain TEST&#xa;Router(config-keychain)#key 1&#xa;Router(config-keychain-key)#key-s&#xa;Router(config-keychain-key)#key-string 7 071B245F5A584B56&#xa;Router(config-keychain-key)#do show key ch&#xa;Router(config-keychain-key)#do show key chain&#xa;Key-chain TEST:&#xa;    key 1 -- text &quot;test123&quot;&#xa;        accept lifetime (always valid) - (always valid) [valid now]&#xa;        send lifetime (always valid) - (always valid) [valid now]&#xa;Router(config-keychain-key)#" style="text;whiteSpace=wrap;" vertex="1" parent="1">
          <mxGeometry x="146" y="77" width="521" height="685" as="geometry" />
        </mxCell>
      </root>
    </mxGraphModel>
  </diagram>
</mxfile>
